# xmcd
#
# Track frame offsets: 
#        150
#        20223
#        41091
#        61792
#        93298
#        106965
#        128199
#        147388
#        169887
#        191985
#        216224
#        239592
#        262881
#
# Disc length: 3813 seconds
#
# Revision: 0
# Processed by: cddbd v1.5.2PL0 Copyright (c) Steve Scherf et al.
# Submitted via: ExactAudioCopy v1.0b1
#
DISCID=c30ee30d
DTITLE=Albert Collins - The Ice Axe Cometh The Collection 1978-86
DYEAR=1999
DGENRE=Texas Blues
TTITLE0=Brick
TTITLE1=Ego Trip
TTITLE2=Lights Are on But Nobodys Home
TTITLE3=Too Tired
TTITLE4=Don't Lose Your Cool
TTITLE5=Give Me My Blues
TTITLE6=The Highway Is Like A Woman
TTITLE7=Frosty (live)
TTITLE8=The Things I Used to Do
TTITLE9=Tired Man (Live)
TTITLE10=Master Charge
TTITLE11=When A Guitar Plays The Blues
TTITLE12=Hooked On You
EXTD=
EXTT0=
EXTT1=
EXTT2=
EXTT3=
EXTT4=
EXTT5=
EXTT6=
EXTT7=
EXTT8=
EXTT9=
EXTT10=
EXTT11=
EXTT12=
PLAYORDER=
